<svg xmlns="http://www.w3.org/2000/svg" width="50" height="50" viewBox="0 0 50 50" fill="none">
  <path fill-rule="evenodd" clip-rule="evenodd" d="M40.6103 12.1135C40.2189 12.6353 40.209 13.3081 40.7242 13.75L43.532 16.1583C44.0103 16.5685 44.7473 16.5136 45.1578 16.035C45.5652 15.56 45.51 14.8169 45.0346 14.4092L42.2264 12.0007C41.7523 11.5942 41.0229 11.6443 40.6103 12.1135ZM11.9541 13.9984C13.6018 13.5254 14.9002 12.2269 15.3732 10.5792C15.3983 10.4917 15.4755 10.4335 15.5666 10.4335C15.6577 10.4335 15.7348 10.4916 15.7599 10.5792C16.2329 12.2269 17.5314 13.5254 19.1791 13.9984C19.2667 14.0235 19.3248 14.1007 19.3248 14.1918C19.3248 14.2829 19.2667 14.36 19.1791 14.3851C17.5314 14.8581 16.2329 16.1566 15.7599 17.8044C15.7348 17.8919 15.6576 17.9501 15.5666 17.9501C15.4755 17.9501 15.3984 17.892 15.3733 17.8044C14.9004 16.1567 13.6019 14.8582 11.9542 14.3852C11.8666 14.3601 11.8085 14.2829 11.8085 14.1918C11.8084 14.1007 11.8665 14.0236 11.9541 13.9984ZM2.40742 5.53213C4.05508 5.05908 5.35352 3.76055 5.82656 2.11289C5.85166 2.02539 5.92881 1.96719 6.01982 1.96719C6.11094 1.96719 6.18799 2.02529 6.21309 2.11289C6.68613 3.76055 7.98467 5.05908 9.63232 5.53213C9.71982 5.55723 9.77803 5.63438 9.77803 5.72549C9.77803 5.8166 9.71992 5.89365 9.63232 5.91875C7.98477 6.3918 6.68623 7.69043 6.21318 9.33809C6.18809 9.42559 6.11094 9.48379 6.01992 9.48379C5.92881 9.48379 5.85176 9.42568 5.82666 9.33809C5.35361 7.69043 4.05508 6.3918 2.40742 5.91875C2.31992 5.89365 2.26182 5.8165 2.26182 5.72549C2.26182 5.63438 2.31992 5.55723 2.40742 5.53213ZM2.40742 22.1755C4.05508 21.7024 5.35352 20.4039 5.82656 18.7563C5.85166 18.6687 5.92881 18.6105 6.01982 18.6105C6.11094 18.6105 6.18799 18.6687 6.21309 18.7563C6.68613 20.4039 7.98467 21.7024 9.63232 22.1755C9.71982 22.2006 9.77803 22.2777 9.77803 22.3688C9.77803 22.46 9.71992 22.537 9.63232 22.5621C7.98467 23.0352 6.68613 24.3338 6.21309 25.9814C6.18799 26.0689 6.11084 26.1271 6.01982 26.1271C5.92871 26.1272 5.85166 26.069 5.82656 25.9814C5.35352 24.3338 4.05498 23.0353 2.40732 22.5621C2.31982 22.537 2.26172 22.4599 2.26172 22.3688C2.26182 22.2777 2.31992 22.2006 2.40742 22.1755ZM30.8492 40.4163C30.2107 40.4166 29.6788 39.8949 29.6681 39.2569C29.6681 38.2177 29.6667 37.158 29.666 36.1136C29.666 35.699 29.33 35.363 28.9154 35.363C28.5009 35.363 28.1648 35.699 28.1648 36.1136C28.1664 38.3634 28.1677 40.6132 28.1693 42.863C28.1697 43.5085 27.6364 44.0438 26.9903 44.0442C26.3541 44.0445 25.8231 43.5262 25.8094 42.8903C25.8069 40.8417 25.8066 38.7811 25.8053 36.7288C25.8053 36.3143 25.4692 35.9782 25.0547 35.9782C24.6401 35.9782 24.3041 36.3143 24.3041 36.7288C24.306 39.4995 24.3097 42.2703 24.3097 45.0409C24.3102 45.6865 23.7768 46.2215 23.1307 46.222C22.4934 46.2223 21.9555 45.6413 21.9337 45.0173L21.9445 36.9954C21.9445 36.5809 21.6085 36.2448 21.1939 36.2448C20.7794 36.2448 20.4434 36.5809 20.4434 36.9954L20.4485 44.7224C20.449 45.3671 19.9141 45.9028 19.2696 45.9033C18.6242 45.9037 18.0883 45.3705 18.0883 44.7246L18.0898 27.8254C18.0898 27.4108 17.7538 27.0748 17.3393 27.0748C17.2472 27.0748 17.159 27.0914 17.0774 27.1218C16.3819 27.3506 15.873 27.4245 15.4992 27.3501C15.2138 27.2933 14.9937 27.1161 14.8027 26.8245C14.5697 26.4685 14.4971 26.0572 14.5685 25.6735C14.6398 25.2899 14.8569 24.931 15.2033 24.6796C15.6366 24.3651 16.2117 23.9229 16.8331 23.4451C18.5141 22.1525 20.5547 20.5833 21.7249 20.1165C22.1402 19.9508 22.5764 19.9076 23.3374 19.8323C23.6949 19.797 24.1113 19.7557 24.4791 19.7121C25.2642 19.6189 32.6904 10.3617 34.0885 8.6416C35.2889 8.97324 36.1836 9.30898 37.3917 8.62305C38.1058 8.21758 38.6051 7.57012 38.8291 6.78164C39.1123 5.7542 38.8357 4.65859 38.1127 3.8832L40.0388 1.5625L47.7374 7.9623L44.4481 11.926L43.1556 10.8185C42.0589 9.92168 40.4424 10.048 39.4972 11.1029C39.0354 11.5647 38.7762 12.4751 38.8287 13.1171C37.3414 13.2206 36.2266 14.5218 36.349 16.0083C34.5564 16.133 33.3487 18.0185 34.0646 19.6998C32.0991 20.2979 31.5164 22.8868 33.1123 24.2554L33.7427 24.7961L32.2535 26.619C32.1347 26.7653 32.0798 26.9429 32.0856 27.1176L32.0281 39.2357C32.0283 39.881 31.4954 40.4158 30.8492 40.4163ZM37.2673 17.7832C36.7932 17.3767 36.0636 17.4266 35.6509 17.8957C35.2594 18.4176 35.2494 19.0903 35.7647 19.5324C36.7014 20.3358 37.6423 21.1357 38.5753 21.943C39.0496 22.3472 39.7772 22.2963 40.1891 21.8281C40.5805 21.3062 40.5904 20.6335 40.0751 20.1915L37.2673 17.7832ZM37.5953 23.0825L35.5854 21.3585C35.1107 20.9577 34.386 21.0099 33.9755 21.4767C33.5841 21.9984 33.5741 22.6714 34.0895 23.1133L36.093 24.8316C36.5671 25.2382 37.2966 25.1883 37.7094 24.719C38.096 24.2036 38.1134 23.5188 37.5953 23.0825ZM42.5548 17.3003C43.07 17.7422 43.0602 18.4151 42.6688 18.9369C42.256 19.4062 41.5265 19.4562 41.0523 19.0495L38.2445 16.6413C37.7292 16.1994 37.7393 15.5265 38.1306 15.0047C38.5433 14.5354 39.273 14.4855 39.747 14.8922L42.5548 17.3003ZM16.671 45.3883C16.6165 45.176 16.5874 44.9537 16.5872 44.7248L16.5886 29.8973L6.45537 42.0487L14.1407 48.4375L16.671 45.3883ZM30.0809 11.1902C31.1261 9.90547 32.1648 8.61328 33.2171 7.33447C33.3974 7.0959 33.7112 6.97881 34.0168 7.06328L35.4733 7.46562C36.2761 7.68691 37.1222 7.22197 37.3676 6.42705C37.3741 6.3959 37.3825 6.36504 37.393 6.33486C37.5806 5.56123 37.0983 4.66221 36.3114 4.47959L33.8152 3.8457C32.5434 3.62412 31.5993 4.25029 31.3308 5.52021C30.9303 7.41455 30.5521 9.31123 30.0809 11.1902Z" fill="#ED3C52"/>
</svg>
